<svg width="688" height="408" viewBox="0 0 688 408" fill="none" xmlns="http://www.w3.org/2000/svg">
<circle cx="4" cy="44" r="4" fill="white"/>
<circle cx="44" cy="44" r="4" fill="white"/>
<circle cx="84" cy="44" r="4" fill="white"/>
<circle cx="124" cy="44" r="4" fill="white"/>
<circle cx="164" cy="44" r="4" fill="white"/>
<circle cx="204" cy="44" r="4" fill="white"/>
<circle cx="244" cy="44" r="4" fill="white"/>
<circle cx="284" cy="44" r="4" fill="white"/>
<circle cx="324" cy="44" r="4" fill="white"/>
<circle cx="364" cy="44" r="4" fill="white"/>
<circle cx="404" cy="44" r="4" fill="white"/>
<circle cx="444" cy="44" r="4" fill="white"/>
<circle cx="484" cy="44" r="4" fill="white"/>
<circle cx="524" cy="44" r="4" fill="white"/>
<circle cx="564" cy="44" r="4" fill="white"/>
<circle cx="604" cy="44" r="4" fill="white"/>
<circle cx="644" cy="44" r="4" fill="white"/>
<circle cx="684" cy="44" r="4" fill="white"/>
<circle cx="4" cy="84" r="4" fill="white"/>
<circle cx="44" cy="84" r="4" fill="white"/>
<circle cx="84" cy="84" r="4" fill="white"/>
<circle cx="124" cy="84" r="4" fill="white"/>
<circle cx="164" cy="84" r="4" fill="white"/>
<circle cx="204" cy="84" r="4" fill="white"/>
<circle cx="244" cy="84" r="4" fill="white"/>
<circle cx="284" cy="84" r="4" fill="white"/>
<circle cx="324" cy="84" r="4" fill="white"/>
<circle cx="364" cy="84" r="4" fill="white"/>
<circle cx="404" cy="84" r="4" fill="white"/>
<circle cx="444" cy="84" r="4" fill="white"/>
<circle cx="484" cy="84" r="4" fill="white"/>
<circle cx="524" cy="84" r="4" fill="white"/>
<circle cx="564" cy="84" r="4" fill="white"/>
<circle cx="604" cy="84" r="4" fill="white"/>
<circle cx="644" cy="84" r="4" fill="white"/>
<circle cx="684" cy="84" r="4" fill="white"/>
<circle cx="4" cy="124" r="4" fill="white"/>
<circle cx="44" cy="124" r="4" fill="white"/>
<circle cx="84" cy="124" r="4" fill="white"/>
<circle cx="124" cy="124" r="4" fill="white"/>
<circle cx="164" cy="124" r="4" fill="white"/>
<circle cx="204" cy="124" r="4" fill="white"/>
<circle cx="244" cy="124" r="4" fill="white"/>
<circle cx="284" cy="124" r="4" fill="white"/>
<circle cx="324" cy="124" r="4" fill="white"/>
<circle cx="364" cy="124" r="4" fill="white"/>
<circle cx="404" cy="124" r="4" fill="white"/>
<circle cx="444" cy="124" r="4" fill="white"/>
<circle cx="484" cy="124" r="4" fill="white"/>
<circle cx="524" cy="124" r="4" fill="white"/>
<circle cx="564" cy="124" r="4" fill="white"/>
<circle cx="604" cy="124" r="4" fill="white"/>
<circle cx="644" cy="124" r="4" fill="white"/>
<circle cx="684" cy="124" r="4" fill="white"/>
<circle cx="44" cy="164" r="4" fill="white"/>
<circle cx="84" cy="164" r="4" fill="white"/>
<circle cx="124" cy="164" r="4" fill="white"/>
<circle cx="164" cy="164" r="4" fill="white"/>
<circle cx="204" cy="164" r="4" fill="white"/>
<circle cx="244" cy="164" r="4" fill="white"/>
<circle cx="284" cy="164" r="4" fill="white"/>
<circle cx="324" cy="164" r="4" fill="white"/>
<circle cx="364" cy="164" r="4" fill="white"/>
<circle cx="404" cy="164" r="4" fill="white"/>
<circle cx="444" cy="164" r="4" fill="white"/>
<circle cx="484" cy="164" r="4" fill="white"/>
<circle cx="524" cy="164" r="4" fill="white"/>
<circle cx="564" cy="164" r="4" fill="white"/>
<circle cx="604" cy="164" r="4" fill="white"/>
<circle cx="644" cy="164" r="4" fill="white"/>
<circle cx="44" cy="204" r="4" fill="white"/>
<circle cx="84" cy="204" r="4" fill="white"/>
<circle cx="124" cy="204" r="4" fill="white"/>
<circle cx="164" cy="204" r="4" fill="white"/>
<circle cx="204" cy="204" r="4" fill="white"/>
<circle cx="244" cy="204" r="4" fill="white"/>
<circle cx="284" cy="204" r="4" fill="white"/>
<circle cx="324" cy="204" r="4" fill="white"/>
<circle cx="364" cy="204" r="4" fill="white"/>
<circle cx="404" cy="204" r="4" fill="white"/>
<circle cx="444" cy="204" r="4" fill="white"/>
<circle cx="484" cy="204" r="4" fill="white"/>
<circle cx="524" cy="204" r="4" fill="white"/>
<circle cx="564" cy="204" r="4" fill="white"/>
<circle cx="604" cy="204" r="4" fill="white"/>
<circle cx="644" cy="204" r="4" fill="white"/>
<circle cx="84" cy="244" r="4" fill="white"/>
<circle cx="124" cy="244" r="4" fill="white"/>
<circle cx="164" cy="244" r="4" fill="white"/>
<circle cx="204" cy="244" r="4" fill="white"/>
<circle cx="244" cy="244" r="4" fill="white"/>
<circle cx="284" cy="244" r="4" fill="white"/>
<circle cx="324" cy="244" r="4" fill="white"/>
<circle cx="364" cy="244" r="4" fill="white"/>
<circle cx="404" cy="244" r="4" fill="white"/>
<circle cx="444" cy="244" r="4" fill="white"/>
<circle cx="484" cy="244" r="4" fill="white"/>
<circle cx="524" cy="244" r="4" fill="white"/>
<circle cx="564" cy="244" r="4" fill="white"/>
<circle cx="604" cy="244" r="4" fill="white"/>
<circle cx="84" cy="284" r="4" fill="white"/>
<circle cx="124" cy="284" r="4" fill="white"/>
<circle cx="164" cy="284" r="4" fill="white"/>
<circle cx="204" cy="284" r="4" fill="white"/>
<circle cx="244" cy="284" r="4" fill="white"/>
<circle cx="284" cy="284" r="4" fill="white"/>
<circle cx="324" cy="284" r="4" fill="white"/>
<circle cx="364" cy="284" r="4" fill="white"/>
<circle cx="404" cy="284" r="4" fill="white"/>
<circle cx="444" cy="284" r="4" fill="white"/>
<circle cx="484" cy="284" r="4" fill="white"/>
<circle cx="524" cy="284" r="4" fill="white"/>
<circle cx="564" cy="284" r="4" fill="white"/>
<circle cx="604" cy="284" r="4" fill="white"/>
<circle cx="124" cy="324" r="4" fill="white"/>
<circle cx="164" cy="324" r="4" fill="white"/>
<circle cx="204" cy="324" r="4" fill="white"/>
<circle cx="244" cy="324" r="4" fill="white"/>
<circle cx="284" cy="324" r="4" fill="white"/>
<circle cx="324" cy="324" r="4" fill="white"/>
<circle cx="364" cy="324" r="4" fill="white"/>
<circle cx="404" cy="324" r="4" fill="white"/>
<circle cx="444" cy="324" r="4" fill="white"/>
<circle cx="484" cy="324" r="4" fill="white"/>
<circle cx="524" cy="324" r="4" fill="white"/>
<circle cx="564" cy="324" r="4" fill="white"/>
<circle cx="164" cy="364" r="4" fill="white"/>
<circle cx="204" cy="364" r="4" fill="white"/>
<circle cx="244" cy="364" r="4" fill="white"/>
<circle cx="284" cy="364" r="4" fill="white"/>
<circle cx="324" cy="364" r="4" fill="white"/>
<circle cx="364" cy="364" r="4" fill="white"/>
<circle cx="404" cy="364" r="4" fill="white"/>
<circle cx="444" cy="364" r="4" fill="white"/>
<circle cx="484" cy="364" r="4" fill="white"/>
<circle cx="524" cy="364" r="4" fill="white"/>
<circle cx="204" cy="404" r="4" fill="white"/>
<circle cx="244" cy="404" r="4" fill="white"/>
<circle cx="284" cy="404" r="4" fill="white"/>
<circle cx="324" cy="404" r="4" fill="white"/>
<circle cx="364" cy="404" r="4" fill="white"/>
<circle cx="404" cy="404" r="4" fill="white"/>
<circle cx="444" cy="404" r="4" fill="white"/>
<circle cx="484" cy="404" r="4" fill="white"/>
<circle cx="4" cy="4" r="4" fill="white"/>
<circle cx="44" cy="4" r="4" fill="white"/>
<circle cx="84" cy="4" r="4" fill="white"/>
<circle cx="124" cy="4" r="4" fill="white"/>
<circle cx="164" cy="4" r="4" fill="white"/>
<circle cx="204" cy="4" r="4" fill="white"/>
<circle cx="244" cy="4" r="4" fill="white"/>
<circle cx="284" cy="4" r="4" fill="white"/>
<circle cx="324" cy="4" r="4" fill="white"/>
<circle cx="364" cy="4" r="4" fill="white"/>
<circle cx="404" cy="4" r="4" fill="white"/>
<circle cx="444" cy="4" r="4" fill="white"/>
<circle cx="484" cy="4" r="4" fill="white"/>
<circle cx="524" cy="4" r="4" fill="white"/>
<circle cx="564" cy="4" r="4" fill="white"/>
<circle cx="604" cy="4" r="4" fill="white"/>
<circle cx="644" cy="4" r="4" fill="white"/>
<circle cx="684" cy="4" r="4" fill="white"/>
</svg>
