<svg width="358" height="161" viewBox="0 0 358 161" fill="none" xmlns="http://www.w3.org/2000/svg">
<g filter="url(#filter0_d)">
<path d="M74.7988 91.9844C74.7988 87.6367 75.5371 83.5352 77.0137 79.6797C78.4902 75.7832 80.541 72.3994 83.166 69.5283C85.832 66.6162 89.1338 64.3193 93.0713 62.6377C97.0088 60.9561 101.336 60.1152 106.053 60.1152C112.369 60.1152 117.927 61.5713 122.726 64.4834C127.565 67.3955 131.216 71.251 133.677 76.0498C136.179 80.8076 137.43 86.1191 137.43 91.9844C137.43 97.8906 136.179 103.264 133.677 108.104C131.216 112.902 127.565 116.758 122.726 119.67C117.927 122.582 112.369 124.038 106.053 124.038C101.336 124.038 97.0088 123.197 93.0713 121.516C89.1338 119.793 85.832 117.496 83.166 114.625C80.541 111.713 78.4902 108.309 77.0137 104.412C75.5371 100.516 74.7988 96.373 74.7988 91.9844ZM88.5186 91.9844C88.5186 97.6445 90.0977 102.443 93.2559 106.381C96.4141 110.318 100.68 112.287 106.053 112.287C111.508 112.287 115.794 110.339 118.911 106.442C122.069 102.505 123.648 97.6855 123.648 91.9844C123.648 86.3652 122.069 81.6074 118.911 77.7109C115.794 73.8145 111.508 71.8662 106.053 71.8662C100.68 71.8662 96.4141 73.8145 93.2559 77.7109C90.0977 81.6074 88.5186 86.3652 88.5186 91.9844ZM150.78 145.694V61.6533H164.008V69.959C166.305 66.8828 169.155 64.4834 172.56 62.7607C176.005 60.9971 179.676 60.1152 183.572 60.1152C191.611 60.1152 198.112 62.9658 203.075 68.667C208.038 74.3682 210.52 82.1406 210.52 91.9844C210.52 101.869 208.018 109.683 203.014 115.425C198.051 121.167 191.57 124.038 183.572 124.038C179.717 124.038 176.107 123.197 172.744 121.516C169.381 119.793 166.469 117.312 164.008 114.071V145.694H150.78ZM164.008 104.104C165.484 106.36 167.699 108.288 170.652 109.888C173.646 111.487 176.641 112.287 179.635 112.287C184.803 112.287 188.945 110.4 192.062 106.627C195.221 102.854 196.8 97.9727 196.8 91.9844C196.8 86.0781 195.221 81.2588 192.062 77.5264C188.945 73.7529 184.803 71.8662 179.635 71.8662C176.6 71.8662 173.605 72.666 170.652 74.2656C167.699 75.8242 165.484 77.752 164.008 80.0488V104.104ZM216.18 73.2197V61.6533H226.27V44.9805H239.497V61.6533H251.863V73.2197H239.497V105.089C239.497 107.222 240.01 108.965 241.035 110.318C242.061 111.631 243.496 112.287 245.342 112.287C246.531 112.287 247.68 112.082 248.787 111.672C249.895 111.221 250.715 110.708 251.248 110.134L254.386 120.101C251.638 122.726 247.475 124.038 241.896 124.038C236.811 124.038 232.935 122.705 230.269 120.039C227.603 117.332 226.27 113.456 226.27 108.411V73.2197H216.18ZM264.66 51.8096C263.061 50.21 262.261 48.2822 262.261 46.0264C262.261 43.7705 263.061 41.8428 264.66 40.2432C266.301 38.6436 268.229 37.8438 270.443 37.8438C272.74 37.8438 274.668 38.6436 276.227 40.2432C277.826 41.8428 278.626 43.7705 278.626 46.0264C278.626 48.2822 277.826 50.21 276.227 51.8096C274.668 53.4092 272.74 54.209 270.443 54.209C268.229 54.209 266.301 53.4092 264.66 51.8096ZM263.86 122.5V61.6533H277.088V122.5H263.86ZM294.253 122.5V61.6533H307.48V69.959C309.777 67.252 312.812 64.9346 316.586 63.0068C320.359 61.0791 324.461 60.1152 328.891 60.1152C335.371 60.1152 340.272 61.7969 343.595 65.1602C346.917 68.5234 348.578 73.3633 348.578 79.6797V122.5H335.351V84.4785C335.351 79.9668 334.284 76.7471 332.151 74.8193C330.06 72.8506 327.045 71.8662 323.107 71.8662C319.908 71.8662 316.914 72.666 314.125 74.2656C311.336 75.8242 309.121 77.752 307.48 80.0488V122.5H294.253Z" fill="black"/>
</g>
<g filter="url(#filter1_d)">
<path d="M82.25 38.5H65.3926L35 87.6572V122.541H49.7656V87.6572L82.25 38.5Z" fill="black"/>
</g>
<g filter="url(#filter2_d)">
<path d="M21 31.0195H4L31 82L82 0H65L32 53L21 31.0195Z" fill="url(#paint0_linear)"/>
</g>
<defs>
<filter id="filter0_d" x="70.7988" y="37.8438" width="281.779" height="115.851" filterUnits="userSpaceOnUse" color-interpolation-filters="sRGB">
<feFlood flood-opacity="0" result="BackgroundImageFix"/>
<feColorMatrix in="SourceAlpha" type="matrix" values="0 0 0 0 0 0 0 0 0 0 0 0 0 0 0 0 0 0 127 0"/>
<feOffset dy="4"/>
<feGaussianBlur stdDeviation="2"/>
<feColorMatrix type="matrix" values="0 0 0 0 0 0 0 0 0 0 0 0 0 0 0 0 0 0 0.25 0"/>
<feBlend mode="normal" in2="BackgroundImageFix" result="effect1_dropShadow"/>
<feBlend mode="normal" in="SourceGraphic" in2="effect1_dropShadow" result="shape"/>
</filter>
<filter id="filter1_d" x="31" y="38.5" width="55.25" height="92.041" filterUnits="userSpaceOnUse" color-interpolation-filters="sRGB">
<feFlood flood-opacity="0" result="BackgroundImageFix"/>
<feColorMatrix in="SourceAlpha" type="matrix" values="0 0 0 0 0 0 0 0 0 0 0 0 0 0 0 0 0 0 127 0"/>
<feOffset dy="4"/>
<feGaussianBlur stdDeviation="2"/>
<feColorMatrix type="matrix" values="0 0 0 0 0 0 0 0 0 0 0 0 0 0 0 0 0 0 0.25 0"/>
<feBlend mode="normal" in2="BackgroundImageFix" result="effect1_dropShadow"/>
<feBlend mode="normal" in="SourceGraphic" in2="effect1_dropShadow" result="shape"/>
</filter>
<filter id="filter2_d" x="0" y="0" width="86" height="90" filterUnits="userSpaceOnUse" color-interpolation-filters="sRGB">
<feFlood flood-opacity="0" result="BackgroundImageFix"/>
<feColorMatrix in="SourceAlpha" type="matrix" values="0 0 0 0 0 0 0 0 0 0 0 0 0 0 0 0 0 0 127 0"/>
<feOffset dy="4"/>
<feGaussianBlur stdDeviation="2"/>
<feColorMatrix type="matrix" values="0 0 0 0 0 0 0 0 0 0 0 0 0 0 0 0 0 0 0.25 0"/>
<feBlend mode="normal" in2="BackgroundImageFix" result="effect1_dropShadow"/>
<feBlend mode="normal" in="SourceGraphic" in2="effect1_dropShadow" result="shape"/>
</filter>
<linearGradient id="paint0_linear" x1="82" y1="0.499995" x2="32" y2="79" gradientUnits="userSpaceOnUse">
<stop stop-color="#F9B63F"/>
<stop offset="0.473958" stop-color="#EA502B"/>
<stop offset="1" stop-color="#E71163"/>
</linearGradient>
</defs>
</svg>
